<?xml version="1.0" encoding="UTF-8"?>
<!-- Uploaded to: SVG Find, www.svgrepo.com, Generator: SVG Find Mixer Tools -->
<svg fill="currentcolor" version="1.1" viewBox="144 144 512 512" xmlns="http://www.w3.org/2000/svg">
 <path d="m462.98 316.03h92.363l-113.36-113.36v92.367c0 12.594 8.3945 20.992 20.992 20.992zm0 41.984c-35.688 0-62.977-27.289-62.977-62.977v-104.96h-104.96c-35.688 0-62.977 27.289-62.977 62.977v293.89c0 35.688 27.289 62.977 62.977 62.977h209.92c35.688 0 62.977-27.289 62.977-62.977v-188.93zm-62.977 167.93c-12.594 0-20.992-8.3984-20.992-20.992s8.3984-20.992 20.992-20.992 20.992 8.3984 20.992 20.992c0 12.598-8.3984 20.992-20.992 20.992zm20.992-83.965c0 12.594-8.3984 20.992-20.992 20.992s-20.992-8.3984-20.992-20.992v-41.984c0-12.594 8.3984-20.992 20.992-20.992s20.992 8.3984 20.992 20.992z"/>
</svg>