<svg viewBox="0 0 16 16" fill="none" xmlns="http://www.w3.org/2000/svg">
<path d="M7.33301 11.9999H9.99967M8.99967 5.33325H9.62827C10.5019 5.33325 10.9387 5.33325 11.3091 5.54293C11.6794 5.75261 11.9263 6.13973 12.4202 6.91399C12.7665 7.45685 13.13 7.85092 13.6411 8.20152C14.1557 8.55445 14.4005 8.72698 14.5363 9.00392C14.6663 9.26912 14.6663 9.58325 14.6663 10.2115C14.6663 11.0397 14.6663 11.4538 14.4337 11.7169C14.4237 11.7283 14.4135 11.7393 14.4029 11.7499C14.158 11.9999 13.7726 11.9999 13.0017 11.9999H12.6663" stroke="#1E3151" stroke-linecap="round" stroke-linejoin="round"/>
<path d="M3.33301 11.9999C2.3902 11.9999 1.91879 11.9999 1.6259 11.7071C1.33301 11.4141 1.33301 10.9427 1.33301 9.99992V5.33325C1.33301 4.39045 1.33301 3.91904 1.6259 3.62615C1.91879 3.33325 2.3902 3.33325 3.33301 3.33325H6.99967C7.94247 3.33325 8.41387 3.33325 8.70681 3.62615C8.99967 3.91904 8.99967 4.39045 8.99967 5.33325V11.9999H5.99967" stroke="#1E3151" stroke-linecap="round" stroke-linejoin="round"/>
<path d="M14.6667 10H14" stroke="#1E3151" stroke-linecap="round" stroke-linejoin="round"/>
<path d="M5.33333 6V8.66667M6.66667 7.33333H4" stroke="#1E3151" stroke-linecap="round" stroke-linejoin="round"/>
<path d="M11.3333 13.3334C12.0697 13.3334 12.6667 12.7365 12.6667 12.0001C12.6667 11.2637 12.0697 10.6667 11.3333 10.6667C10.597 10.6667 10 11.2637 10 12.0001C10 12.7365 10.597 13.3334 11.3333 13.3334Z" stroke="#1E3151"/>
<path d="M4.66634 13.3334C5.40272 13.3334 5.99967 12.7365 5.99967 12.0001C5.99967 11.2637 5.40272 10.6667 4.66634 10.6667C3.92996 10.6667 3.33301 11.2637 3.33301 12.0001C3.33301 12.7365 3.92996 13.3334 4.66634 13.3334Z" stroke="#1E3151"/>
</svg>
