<svg viewBox="0 0 16 16" fill="none" xmlns="http://www.w3.org/2000/svg">
<path d="M6.66699 8.88887C6.66699 8.6822 6.66699 8.57887 6.68973 8.49413C6.75133 8.26407 6.93106 8.08433 7.16113 8.02273C7.24586 8 7.34919 8 7.55586 8H8.44479C8.65146 8 8.75479 8 8.83953 8.02273C9.06959 8.08433 9.24933 8.26407 9.31093 8.49413C9.33366 8.57887 9.33366 8.6822 9.33366 8.88887V9.33333C9.33366 10.0697 8.73673 10.6667 8.00033 10.6667C7.26393 10.6667 6.66699 10.0697 6.66699 9.33333V8.88887Z" stroke="#1E3151" stroke-linecap="round" stroke-linejoin="round"/>
<path d="M9.26699 8.99992H10.0554C10.9115 8.99992 11.3396 8.99992 11.7041 8.92272C12.759 8.69925 13.6197 8.01372 13.9963 7.09692C14.1264 6.78019 14.1795 6.39693 14.2857 5.63039C14.3255 5.34262 14.3455 5.19874 14.3263 5.08105C14.2705 4.73828 13.9958 4.45751 13.6257 4.36501C13.4987 4.33325 13.338 4.33325 13.0166 4.33325H2.98407C2.66266 4.33325 2.50196 4.33325 2.3749 4.36501C2.00487 4.45751 1.73017 4.73828 1.67435 5.08105C1.65518 5.19874 1.67512 5.34262 1.71498 5.63039C1.82118 6.39693 1.87427 6.78019 2.00438 7.09692C2.38099 8.01372 3.24164 8.69925 4.29656 8.92272C4.66102 8.99992 5.08911 8.99992 5.94528 8.99992H6.73366" stroke="#1E3151"/>
<path d="M2.33301 7.66675V9.00008C2.33301 11.5142 2.33301 12.7713 3.07067 13.5523C3.80832 14.3334 4.99556 14.3334 7.37007 14.3334H8.62927C11.0038 14.3334 12.191 14.3334 12.9287 13.5523C13.6663 12.7713 13.6663 11.5142 13.6663 9.00008V7.66675" stroke="#1E3151" stroke-linecap="round" stroke-linejoin="round"/>
<path d="M10.3337 4.33341L10.2821 4.09794C10.0255 2.92457 9.89713 2.33789 9.59159 2.00231C9.28606 1.66675 8.88026 1.66675 8.06853 1.66675H7.93213C7.12039 1.66675 6.71459 1.66675 6.40905 2.00231C6.10351 2.33789 5.97518 2.92457 5.71851 4.09794L5.66699 4.33341" stroke="#1E3151"/>
</svg>
