<svg viewBox="0 0 16 16" fill="none" xmlns="http://www.w3.org/2000/svg">
<path d="M6.66634 7.75164L3.38299 11.6144C2.94241 12.1328 2.15435 12.1644 1.67393 11.6828C1.1935 11.2014 1.22497 10.4116 1.74218 9.97004L5.59654 6.67944" stroke="#1E3151" stroke-linejoin="round"/>
<path d="M11.9997 6.71105L8.69807 10.0199M6.63459 1.33423L3.33301 4.64307M6.22192 1.74781L3.74573 4.22944C3.74573 4.22944 4.98382 5.88386 6.22192 7.12466C7.46001 8.36552 9.11081 9.60632 9.11081 9.60632L11.587 7.12466C11.587 7.12466 10.3489 5.47025 9.11081 4.22944C7.87274 2.98863 6.22192 1.74781 6.22192 1.74781Z" stroke="#1E3151" stroke-linecap="round" stroke-linejoin="round"/>
<path d="M13.333 7.77278L14.6663 6.67944M13.333 9.95938L14.6663 10.6882" stroke="#1E3151" stroke-linecap="round" stroke-linejoin="round"/>
<path d="M7.33496 14.6658H14.0002M8.15143 14.6658C8.51909 14.0075 8.79363 12.7477 10.095 12.6771C10.4815 12.6561 10.8748 12.6561 11.2612 12.6771C12.5626 12.7477 12.8384 14.0075 13.2061 14.6658" stroke="#1E3151" stroke-linecap="round" stroke-linejoin="round"/>
</svg>
