<svg viewBox="0 0 16 16" fill="none" xmlns="http://www.w3.org/2000/svg">
<path d="M3.33301 10.6666L6.66634 8.66658M9.33301 7.33325L12.6663 5.33325M7.99967 3.33325V6.66659M7.99967 9.33325V12.6666M3.33301 5.33325L6.66634 7.33325M9.33301 8.66658L12.6663 10.6666" stroke="#1E3151" stroke-linejoin="round"/>
<path d="M13.6663 5.99992V9.66658M8.99967 13.6666L12.6663 11.6666M2.99967 11.6666L6.99967 13.6666M2.33301 9.99992V5.99992M2.99967 4.33325L6.99967 2.33325M12.9997 4.33325L8.99967 2.33325" stroke="#1E3151" stroke-linejoin="round"/>
<path d="M8 3.33325C8.55228 3.33325 9 2.88554 9 2.33325C9 1.78097 8.55228 1.33325 8 1.33325C7.44772 1.33325 7 1.78097 7 2.33325C7 2.88554 7.44772 3.33325 8 3.33325Z" stroke="#1E3151" stroke-linejoin="round"/>
<path d="M8 14.6667C8.55228 14.6667 9 14.219 9 13.6667C9 13.1145 8.55228 12.6667 8 12.6667C7.44772 12.6667 7 13.1145 7 13.6667C7 14.219 7.44772 14.6667 8 14.6667Z" stroke="#1E3151" stroke-linejoin="round"/>
<path d="M2.33301 6C2.88529 6 3.33301 5.55228 3.33301 5C3.33301 4.44772 2.88529 4 2.33301 4C1.78072 4 1.33301 4.44772 1.33301 5C1.33301 5.55228 1.78072 6 2.33301 6Z" stroke="#1E3151" stroke-linejoin="round"/>
<path d="M13.667 6C14.2193 6 14.667 5.55228 14.667 5C14.667 4.44772 14.2193 4 13.667 4C13.1147 4 12.667 4.44772 12.667 5C12.667 5.55228 13.1147 6 13.667 6Z" stroke="#1E3151" stroke-linejoin="round"/>
<path d="M13.667 12C14.2193 12 14.667 11.5523 14.667 11C14.667 10.4477 14.2193 10 13.667 10C13.1147 10 12.667 10.4477 12.667 11C12.667 11.5523 13.1147 12 13.667 12Z" stroke="#1E3151" stroke-linejoin="round"/>
<path d="M2.33301 12C2.88529 12 3.33301 11.5523 3.33301 11C3.33301 10.4477 2.88529 10 2.33301 10C1.78072 10 1.33301 10.4477 1.33301 11C1.33301 11.5523 1.78072 12 2.33301 12Z" stroke="#1E3151" stroke-linejoin="round"/>
<path d="M8.00033 6.5L9.33366 7.25V8.75L8.00033 9.5L6.66699 8.75V7.25L8.00033 6.5Z" stroke="#1E3151" stroke-linejoin="round"/>
</svg>
