<svg viewBox="0 0 16 16" fill="none" xmlns="http://www.w3.org/2000/svg">
<path d="M1.38627 6.48936C1.01908 8.38533 2.67059 9.33333 2.67059 9.33333H13.3297C13.3297 9.33333 14.9803 8.38533 14.6131 6.48936C14.3818 5.29531 11.8188 3.72525 9.95274 2.72639C9.04808 2.24213 8.59568 2 7.99968 2C7.40361 2 6.95128 2.24213 6.0466 2.72639C4.18054 3.72525 1.61753 5.29531 1.38627 6.48936Z" stroke="#1E3151" stroke-linecap="round" stroke-linejoin="round"/>
<path d="M2.76109 9.33337C1.77873 10.2166 1.4737 12.3841 3.53704 12.9225C4.90853 13.2803 6.42859 13.658 7.2938 13.871C7.643 13.957 7.8176 14 8 14C8.1824 14 8.357 13.957 8.7062 13.871C9.5714 13.658 11.0915 13.2803 12.4629 12.9225C14.5263 12.3841 14.2213 10.2166 13.2389 9.33337" stroke="#1E3151" stroke-linecap="round" stroke-linejoin="round"/>
<path d="M6.92693 5.15319L7.66427 4.75203C7.87353 4.63816 8.12713 4.63816 8.3364 4.75203L9.07373 5.15319C9.26713 5.25841 9.37573 5.47329 9.31833 5.68428C9.17333 6.21689 8.8168 7.06383 8.00033 7.33329C7.18387 7.06383 6.82733 6.21689 6.68233 5.68428C6.62492 5.47329 6.73353 5.25841 6.92693 5.15319Z" stroke="#1E3151" stroke-linecap="round" stroke-linejoin="round"/>
</svg>
