<svg viewBox="0 0 16 16" fill="none" xmlns="http://www.w3.org/2000/svg">
<path d="M4.66699 14.6666V8.26534C4.66699 7.55321 4.66699 7.19714 4.83005 6.89847C4.99309 6.59983 5.29261 6.40728 5.89164 6.02219L7.27933 5.13011C7.62946 4.90503 7.80453 4.79248 8.00033 4.79248C8.19613 4.79248 8.37119 4.90503 8.72133 5.13011L10.109 6.02219C10.7081 6.40728 11.0075 6.59983 11.1706 6.89847C11.3337 7.19714 11.3337 7.55321 11.3337 8.26534V14.6666" stroke="#1E3151" stroke-linecap="round" stroke-linejoin="round"/>
<path d="M8 8.66675H8.006" stroke="#1E3151" stroke-width="1.33333" stroke-linecap="round" stroke-linejoin="round"/>
<path d="M13.9997 14.6667V10.7749C13.9997 9.24721 13.1602 9.12355 11.333 8.66675" stroke="#1E3151" stroke-linecap="round" stroke-linejoin="round"/>
<path d="M2 14.6667V10.7749C2 9.24721 2.83944 9.12355 4.66667 8.66675" stroke="#1E3151" stroke-linecap="round" stroke-linejoin="round"/>
<path d="M1.33301 14.6667H14.6663" stroke="#1E3151" stroke-linecap="round" stroke-linejoin="round"/>
<path d="M8 14.6667V12" stroke="#1E3151" stroke-linecap="round"/>
<path d="M8 4.66659V3.32139M8 3.32139V1.98015C8 1.66402 8 1.50595 8.0976 1.40774C8.40407 1.09951 9.66667 1.82861 10.1469 2.12427C10.5523 2.37395 10.6667 2.87268 10.6667 3.32139H8Z" stroke="#1E3151" stroke-linecap="round" stroke-linejoin="round"/>
</svg>
