<svg viewBox="0 0 16 16" fill="none" xmlns="http://www.w3.org/2000/svg">
<path d="M4.33301 14C5.98986 14 7.33301 12.6569 7.33301 11C7.33301 9.34315 5.98986 8 4.33301 8C2.67615 8 1.33301 9.34315 1.33301 11C1.33301 12.6569 2.67615 14 4.33301 14Z" stroke="#1E3151" stroke-linecap="round" stroke-linejoin="round"/>
<path d="M12.667 14C13.7716 14 14.667 13.1046 14.667 12C14.667 10.8954 13.7716 10 12.667 10C11.5624 10 10.667 10.8954 10.667 12C10.667 13.1046 11.5624 14 12.667 14Z" stroke="#1E3151" stroke-linecap="round" stroke-linejoin="round"/>
<path d="M1.33301 6.99967C2.16867 6.37195 3.2074 6 4.33301 6C7.09441 6 9.33301 8.2386 9.33301 11C9.33301 11.064 9.33181 11.1277 9.32941 11.1911C9.31427 11.5942 9.30667 11.7958 9.40507 11.8979C9.50341 12 9.68514 12 10.0486 12H10.6663" stroke="#1E3151" stroke-linecap="round" stroke-linejoin="round"/>
<path d="M8.66699 6L10.7375 6.38821C12.2981 6.6808 13.0784 6.82713 13.5393 7.3826C14.0003 7.938 14.0003 8.73647 14.0003 10.3333" stroke="#1E3151" stroke-linecap="round" stroke-linejoin="round"/>
<path d="M13.3337 8H12.667" stroke="#1E3151" stroke-linecap="round" stroke-linejoin="round"/>
<path d="M8.66699 8.33333V6.39139C8.66699 6.13185 8.62913 5.87371 8.55453 5.62512L7.66699 2M2.66699 6V2" stroke="#1E3151" stroke-linecap="round" stroke-linejoin="round"/>
<path d="M2 2H8.66667" stroke="#1E3151" stroke-linecap="round" stroke-linejoin="round"/>
<path d="M12 6.33333V5.33333C12 4.59695 12.5969 4 13.3333 4" stroke="#1E3151" stroke-linecap="round" stroke-linejoin="round"/>
<path d="M4.66699 6V2" stroke="#1E3151" stroke-linecap="round" stroke-linejoin="round"/>
</svg>
