<svg viewBox="0 0 28 28" fill="none" xmlns="http://www.w3.org/2000/svg">
<path d="M20.6378 13.1249H4.375C4.14294 13.1249 3.92038 13.2171 3.75628 13.3812C3.59219 13.5453 3.5 13.7678 3.5 13.9999C3.5 14.2319 3.59219 14.4545 3.75628 14.6186C3.92038 14.7827 4.14294 14.8749 4.375 14.8749H20.6378L14.2555 21.2554C14.0912 21.4197 13.9989 21.6425 13.9989 21.8749C13.9989 22.1072 14.0912 22.3301 14.2555 22.4944C14.4198 22.6587 14.6426 22.751 14.875 22.751C15.1074 22.751 15.3302 22.6587 15.4945 22.4944L23.3695 14.6194C23.451 14.5381 23.5156 14.4415 23.5597 14.3352C23.6039 14.2289 23.6266 14.115 23.6266 13.9999C23.6266 13.8848 23.6039 13.7708 23.5597 13.6645C23.5156 13.5582 23.451 13.4617 23.3695 13.3804L15.4945 5.50538C15.3302 5.34108 15.1074 5.24878 14.875 5.24878C14.6426 5.24878 14.4198 5.34108 14.2555 5.50538C14.0912 5.66969 13.9989 5.89253 13.9989 6.12488C13.9989 6.35724 14.0912 6.58008 14.2555 6.74438L20.6378 13.1249Z" fill="currentColor"/>
</svg>
