<svg width="20" height="20" viewBox="0 0 20 20" fill="none" xmlns="http://www.w3.org/2000/svg">
<path d="M2.61981 19.5H8.41301V15.2606H11.587V19.5H17.3802V0.5H2.62001L2.61981 19.5ZM13.163 2.6086H15.2716V4.7172H13.163V2.6086ZM13.163 6.826H15.2716V8.9346H13.163V6.826ZM13.163 11.0432H15.2716V13.152H13.163V11.0432ZM8.94561 2.6086H11.0544V4.7172H8.94561V2.6086ZM8.94561 6.826H11.0544V8.9346H8.94561V6.826ZM8.94561 11.0432H11.0544V13.152H8.94561V11.0432ZM4.72841 2.6086H6.83701V4.7172H4.72841V2.6086ZM4.72841 6.826H6.83701V8.9346H4.72841V6.826ZM4.72841 11.0432H6.83701V13.152H4.72841V11.0432Z" fill="white"/>
</svg>
