<svg viewBox="0 0 16 16" fill="none" xmlns="http://www.w3.org/2000/svg">
<path d="M8 10V11" stroke="#1E3151" stroke-linecap="round" stroke-linejoin="round"/>
<path d="M2 7.3335L2.10192 9.24236C2.21143 11.6515 2.26618 12.8561 3.03923 13.5948C3.81229 14.3335 5.01811 14.3335 7.42973 14.3335H8.57027C10.9819 14.3335 12.1877 14.3335 12.9608 13.5948C13.7338 12.8561 13.7886 11.6515 13.8981 9.24236L14 7.3335" stroke="#1E3151" stroke-linecap="round" stroke-linejoin="round"/>
<path d="M1.89845 6.96207C3.03131 9.11627 5.58646 10 8.00033 10C10.4142 10 12.9693 9.11627 14.1022 6.96207C14.643 5.93371 14.2335 4 12.9017 4H3.09899C1.76715 4 1.35768 5.93371 1.89845 6.96207Z" stroke="#1E3151"/>
<path d="M10.6664 3.99984L10.6075 3.7938C10.3142 2.7671 10.1675 2.25375 9.81829 1.96012C9.46909 1.6665 9.00529 1.6665 8.07762 1.6665H7.92169C6.99409 1.6665 6.53025 1.6665 6.18107 1.96012C5.83189 2.25375 5.68521 2.7671 5.39187 3.7938L5.33301 3.99984" stroke="#1E3151"/>
</svg>
