<svg viewBox="0 0 16 16" fill="none" xmlns="http://www.w3.org/2000/svg">
<path fill-rule="evenodd" clip-rule="evenodd" d="M8 0.666687C7.80889 0.666662 7.62001 0.707719 7.44615 0.787078C7.2723 0.866437 7.11754 0.982242 6.99235 1.12665C6.86717 1.27105 6.77449 1.44068 6.7206 1.62403C6.66671 1.80738 6.65286 2.00018 6.68 2.18935C5.71358 2.47435 4.86536 3.06447 4.26213 3.8715C3.6589 4.67853 3.33306 5.65912 3.33333 6.66669V12H2.66667C2.48986 12 2.32029 12.0703 2.19526 12.1953C2.07024 12.3203 2 12.4899 2 12.6667C2 12.8435 2.07024 13.0131 2.19526 13.1381C2.32029 13.2631 2.48986 13.3334 2.66667 13.3334H13.3333C13.5101 13.3334 13.6797 13.2631 13.8047 13.1381C13.9298 13.0131 14 12.8435 14 12.6667C14 12.4899 13.9298 12.3203 13.8047 12.1953C13.6797 12.0703 13.5101 12 13.3333 12H12.6667V6.66669C12.6669 5.65912 12.3411 4.67853 11.7379 3.8715C11.1346 3.06447 10.2864 2.47435 9.32 2.18935C9.32889 2.12713 9.33333 2.06402 9.33333 2.00002C9.33333 1.6464 9.19286 1.30726 8.94281 1.05721C8.69276 0.807163 8.35362 0.666687 8 0.666687ZM9.33333 14.6667C9.33333 14.8435 9.2631 15.0131 9.13807 15.1381C9.01305 15.2631 8.84348 15.3334 8.66667 15.3334H7.33333C7.15652 15.3334 6.98695 15.2631 6.86193 15.1381C6.7369 15.0131 6.66667 14.8435 6.66667 14.6667C6.66667 14.4899 6.7369 14.3203 6.86193 14.1953C6.98695 14.0703 7.15652 14 7.33333 14H8.66667C8.84348 14 9.01305 14.0703 9.13807 14.1953C9.2631 14.3203 9.33333 14.4899 9.33333 14.6667Z" fill="currentColor"/>
</svg>
