<svg viewBox="0 0 18 18" fill="none" xmlns="http://www.w3.org/2000/svg">
<path d="M2.25 9C2.25 9.19891 2.32902 9.38968 2.46967 9.53033C2.61032 9.67098 2.80109 9.75 3 9.75H7.5C7.69891 9.75 7.88968 9.67098 8.03033 9.53033C8.17098 9.38968 8.25 9.19891 8.25 9V3C8.25 2.80109 8.17098 2.61032 8.03033 2.46967C7.88968 2.32902 7.69891 2.25 7.5 2.25H3C2.80109 2.25 2.61032 2.32902 2.46967 2.46967C2.32902 2.61032 2.25 2.80109 2.25 3V9ZM2.25 15C2.25 15.1989 2.32902 15.3897 2.46967 15.5303C2.61032 15.671 2.80109 15.75 3 15.75H7.5C7.69891 15.75 7.88968 15.671 8.03033 15.5303C8.17098 15.3897 8.25 15.1989 8.25 15V12C8.25 11.8011 8.17098 11.6103 8.03033 11.4697C7.88968 11.329 7.69891 11.25 7.5 11.25H3C2.80109 11.25 2.61032 11.329 2.46967 11.4697C2.32902 11.6103 2.25 11.8011 2.25 12V15ZM9.75 15C9.75 15.1989 9.82902 15.3897 9.96967 15.5303C10.1103 15.671 10.3011 15.75 10.5 15.75H15C15.1989 15.75 15.3897 15.671 15.5303 15.5303C15.671 15.3897 15.75 15.1989 15.75 15V9C15.75 8.80109 15.671 8.61032 15.5303 8.46967C15.3897 8.32902 15.1989 8.25 15 8.25H10.5C10.3011 8.25 10.1103 8.32902 9.96967 8.46967C9.82902 8.61032 9.75 8.80109 9.75 9V15ZM10.5 2.25C10.3011 2.25 10.1103 2.32902 9.96967 2.46967C9.82902 2.61032 9.75 2.80109 9.75 3V6C9.75 6.19891 9.82902 6.38968 9.96967 6.53033C10.1103 6.67098 10.3011 6.75 10.5 6.75H15C15.1989 6.75 15.3897 6.67098 15.5303 6.53033C15.671 6.38968 15.75 6.19891 15.75 6V3C15.75 2.80109 15.671 2.61032 15.5303 2.46967C15.3897 2.32902 15.1989 2.25 15 2.25H10.5Z" fill="currentColor"/>
</svg>
