<svg viewBox="0 0 15 16" fill="none" xmlns="http://www.w3.org/2000/svg">
<path d="M11.875 12.375H3.125V5.5H11.875M10 1.125V2.375H5V1.125H3.75V2.375H3.125C2.43125 2.375 1.875 2.93125 1.875 3.625V12.375C1.875 12.7065 2.0067 13.0245 2.24112 13.2589C2.47554 13.4933 2.79348 13.625 3.125 13.625H11.875C12.2065 13.625 12.5245 13.4933 12.7589 13.2589C12.9933 13.0245 13.125 12.7065 13.125 12.375V3.625C13.125 3.29348 12.9933 2.97554 12.7589 2.74112C12.5245 2.5067 12.2065 2.375 11.875 2.375H11.25V1.125M10.625 8H7.5V11.125H10.625V8Z" fill="#78EF95"/>
</svg>
