<svg viewBox="0 0 16 16" fill="none" xmlns="http://www.w3.org/2000/svg">
<path d="M2 14V11.1667L10.8 2.38333C10.9333 2.26111 11.0807 2.16667 11.242 2.1C11.4033 2.03333 11.5727 2 11.75 2C11.9273 2 12.0996 2.03333 12.2667 2.1C12.4338 2.16667 12.5782 2.26667 12.7 2.4L13.6167 3.33333C13.75 3.45556 13.8473 3.6 13.9087 3.76667C13.97 3.93333 14.0004 4.1 14 4.26667C14 4.44444 13.9696 4.614 13.9087 4.77533C13.8478 4.93667 13.7504 5.08378 13.6167 5.21667L4.83333 14H2ZM11.7333 5.2L12.6667 4.26667L11.7333 3.33333L10.8 4.26667L11.7333 5.2Z" fill="currentColor"/>
</svg>
