<svg viewBox="0 0 16 16" fill="none" xmlns="http://www.w3.org/2000/svg">
<path d="M10.9499 3.07006L11.6099 2.41007C12.1567 1.86331 13.0431 1.86331 13.5899 2.41007C14.1366 2.95683 14.1366 3.84329 13.5899 4.39005L12.9299 5.05004M10.9499 3.07006L6.51031 7.5096C6.17197 7.848 5.93195 8.27187 5.8159 8.73607L5.33325 10.6667L7.26385 10.184C7.72805 10.068 8.15192 9.82793 8.49032 9.4896L12.9299 5.05004M10.9499 3.07006L12.9299 5.05004" stroke="#858688" stroke-linejoin="round" />
<path d="M12.6666 9.00004C12.6666 11.1917 12.6666 12.2875 12.0613 13.0251C11.9505 13.1601 11.8267 13.2839 11.6917 13.3947C10.9541 14 9.85827 14 7.6666 14H7.33333C4.81917 14 3.56211 14 2.78106 13.219C2.00002 12.438 2 11.1808 2 8.66671V8.33337C2 6.14172 2 5.0459 2.60529 4.30833C2.71611 4.17331 2.83993 4.04949 2.97496 3.93867C3.71253 3.33337 4.80835 3.33337 7 3.33337" stroke="#858688" stroke-linecap="round" stroke-linejoin="round" />
</svg>
