<svg width="16" height="16" viewBox="0 0 16 16" fill="none" xmlns="http://www.w3.org/2000/svg">
<g clip-path="url(#clip0_50_318)">
<path d="M7.99967 14.5953C4.31767 14.5953 1.33301 11.6106 1.33301 7.92863C1.33301 4.24663 4.31767 1.26196 7.99967 1.26196C11.6817 1.26196 14.6663 4.2473 14.6663 7.92863C14.6663 11.61 11.6817 14.5953 7.99967 14.5953ZM7.99967 4.5953C7.82286 4.5953 7.65329 4.66553 7.52827 4.79056C7.40325 4.91558 7.33301 5.08515 7.33301 5.26196V8.5953C7.33301 8.77211 7.40325 8.94168 7.52827 9.0667C7.65329 9.19173 7.82286 9.26196 7.99967 9.26196C8.17649 9.26196 8.34605 9.19173 8.47108 9.0667C8.5961 8.94168 8.66634 8.77211 8.66634 8.5953V5.26196C8.66634 5.08515 8.5961 4.91558 8.47108 4.79056C8.34605 4.66553 8.17649 4.5953 7.99967 4.5953ZM7.99967 11.262C8.17649 11.262 8.34605 11.1917 8.47108 11.0667C8.5961 10.9417 8.66634 10.7721 8.66634 10.5953C8.66634 10.4185 8.5961 10.2489 8.47108 10.1239C8.34605 9.99887 8.17649 9.92863 7.99967 9.92863C7.82286 9.92863 7.65329 9.99887 7.52827 10.1239C7.40325 10.2489 7.33301 10.4185 7.33301 10.5953C7.33301 10.7721 7.40325 10.9417 7.52827 11.0667C7.65329 11.1917 7.82286 11.262 7.99967 11.262Z" fill="#FF6F61"/>
</g>
<defs>
<clipPath id="clip0_50_318">
<rect width="16" height="16" fill="white"/>
</clipPath>
</defs>
</svg>
 