<svg viewBox="0 0 17 16" fill="none" xmlns="http://www.w3.org/2000/svg">
<path d="M9.16667 2.66663H2.5" stroke="white" stroke-linecap="round" stroke-linejoin="round"/>
<path d="M7.83333 12.6666H2.5" stroke="white" stroke-linecap="round" stroke-linejoin="round"/>
<path d="M14.5002 12.6666H11.8335" stroke="white" stroke-linecap="round" stroke-linejoin="round"/>
<path d="M14.5002 7.66663H7.8335" stroke="white" stroke-linecap="round" stroke-linejoin="round"/>
<path d="M14.4998 2.66663H13.1665" stroke="white" stroke-linecap="round" stroke-linejoin="round"/>
<path d="M3.83333 7.66663H2.5" stroke="white" stroke-linecap="round" stroke-linejoin="round"/>
<path d="M10.1665 1.33337C10.4771 1.33337 10.6324 1.33337 10.755 1.38412C10.9183 1.45178 11.0481 1.58157 11.1158 1.74492C11.1665 1.86743 11.1665 2.02275 11.1665 2.33337V3.00004C11.1665 3.31067 11.1665 3.46598 11.1158 3.58849C11.0481 3.75185 10.9183 3.88163 10.755 3.94929C10.6324 4.00004 10.4771 4.00004 10.1665 4.00004C9.8559 4.00004 9.70057 4.00004 9.57804 3.94929C9.4147 3.88163 9.2849 3.75185 9.21724 3.58849C9.1665 3.46598 9.1665 3.31067 9.1665 3.00004V2.33337C9.1665 2.02275 9.1665 1.86743 9.21724 1.74492C9.2849 1.58157 9.4147 1.45178 9.57804 1.38412C9.70057 1.33337 9.8559 1.33337 10.1665 1.33337Z" stroke="white" stroke-linecap="round" stroke-linejoin="round"/>
<path d="M8.8335 11.3334C9.1441 11.3334 9.29943 11.3334 9.42196 11.3841C9.5853 11.4518 9.7151 11.5816 9.78276 11.7449C9.8335 11.8674 9.8335 12.0228 9.8335 12.3334V13C9.8335 13.3106 9.8335 13.466 9.78276 13.5885C9.7151 13.7518 9.5853 13.8816 9.42196 13.9493C9.29943 14 9.1441 14 8.8335 14C8.5229 14 8.36756 14 8.24503 13.9493C8.0817 13.8816 7.9519 13.7518 7.88423 13.5885C7.8335 13.466 7.8335 13.3106 7.8335 13V12.3334C7.8335 12.0228 7.8335 11.8674 7.88423 11.7449C7.9519 11.5816 8.0817 11.4518 8.24503 11.3841C8.36756 11.3334 8.5229 11.3334 8.8335 11.3334Z" stroke="white" stroke-linecap="round" stroke-linejoin="round"/>
<path d="M6.8335 6.33337C7.14412 6.33337 7.29943 6.33337 7.42196 6.38412C7.5853 6.45178 7.7151 6.58157 7.78276 6.74491C7.8335 6.86744 7.8335 7.02277 7.8335 7.33337V8.00004C7.8335 8.31064 7.8335 8.46597 7.78276 8.58851C7.7151 8.75184 7.5853 8.88164 7.42196 8.94931C7.29943 9.00004 7.14412 9.00004 6.8335 9.00004C6.52287 9.00004 6.36756 9.00004 6.24504 8.94931C6.08169 8.88164 5.9519 8.75184 5.88424 8.58851C5.8335 8.46597 5.8335 8.31064 5.8335 8.00004V7.33337C5.8335 7.02277 5.8335 6.86744 5.88424 6.74491C5.9519 6.58157 6.08169 6.45178 6.24504 6.38412C6.36756 6.33337 6.52287 6.33337 6.8335 6.33337Z" stroke="white" stroke-linecap="round" stroke-linejoin="round"/>
</svg>
