<svg width="16" height="16" viewBox="0 0 16 16" fill="none" xmlns="http://www.w3.org/2000/svg">
<g clip-path="url(#clip0_122_366)">
<path d="M0.475098 8.00005C0.475098 11.275 2.5751 14.05 5.4751 15.075V0.925049C2.5751 1.95005 0.475098 4.72505 0.475098 8.00005Z" fill="#428BC1"/>
<path d="M15.4751 8.00005C15.4751 4.72505 13.4001 1.95005 10.4751 0.925049V15.075C13.4001 14.05 15.4751 11.275 15.4751 8.00005Z" fill="#ED4C5C"/>
<path d="M5.4751 15.075C6.2501 15.35 7.1001 15.5 7.9751 15.5C8.8501 15.5 9.7001 15.35 10.4751 15.075V0.925C9.7001 0.65 8.8751 0.5 7.9751 0.5C7.0751 0.5 6.2501 0.65 5.4751 0.925V15.075Z" fill="white"/>
</g>
<defs>
<clipPath id="clip0_122_366">
<rect width="16" height="16" fill="white"/>
</clipPath>
</defs>
</svg>
