<svg width="16" height="16" viewBox="0 0 16 16" fill="none" xmlns="http://www.w3.org/2000/svg">
<g clip-path="url(#clip0_122_349)">
<path d="M12 1.65C10.825 0.925 9.475 0.5 8 0.5V1.65H12Z" fill="#ED4C5C"/>
<path d="M8 2.80002H13.4C12.975 2.37502 12.5 1.97502 12 1.65002H8V2.80002Z" fill="white"/>
<path d="M8 3.95005H14.325C14.05 3.52505 13.75 3.15005 13.425 2.80005H8V3.95005Z" fill="#ED4C5C"/>
<path d="M8 5.09995H14.925C14.75 4.69995 14.55 4.29995 14.325 3.94995H8V5.09995Z" fill="white"/>
<path d="M8 6.24998H15.3C15.2 5.84998 15.075 5.47498 14.925 5.09998H8V6.24998Z" fill="#ED4C5C"/>
<path d="M8 7.42502H15.475C15.45 7.02502 15.375 6.65002 15.3 6.27502H8V7.42502Z" fill="white"/>
<path d="M15.475 7.42505H8V8.00005H0.5C0.5 8.20005 0.5 8.37505 0.525 8.57505H15.475C15.5 8.37505 15.5 8.20005 15.5 8.00005C15.5 7.80005 15.5 7.60005 15.475 7.42505Z" fill="#ED4C5C"/>
<path d="M0.699902 9.72495H15.2999C15.3999 9.34995 15.4499 8.97495 15.4749 8.57495H0.524902C0.549902 8.94995 0.599902 9.34995 0.699902 9.72495Z" fill="white"/>
<path d="M1.07495 10.875H14.925C15.075 10.5 15.2 10.125 15.3 9.72498H0.699951C0.799951 10.125 0.924951 10.5 1.07495 10.875Z" fill="#ED4C5C"/>
<path d="M1.67495 12.025H14.325C14.55 11.65 14.75 11.275 14.925 10.875H1.07495C1.24995 11.275 1.44995 11.65 1.67495 12.025Z" fill="white"/>
<path d="M2.57505 13.175H13.425C13.75 12.825 14.075 12.425 14.325 12.025H1.67505C1.92505 12.45 2.25005 12.825 2.57505 13.175Z" fill="#ED4C5C"/>
<path d="M3.97495 14.325H12.025C12.55 14 13 13.6 13.425 13.175H2.57495C2.99995 13.625 3.47495 14 3.97495 14.325Z" fill="white"/>
<path d="M8.0001 15.5C9.4751 15.5 10.8501 15.075 12.0251 14.325H3.9751C5.1501 15.075 6.5251 15.5 8.0001 15.5Z" fill="#ED4C5C"/>
<path d="M4 1.65C3.475 1.975 3 2.375 2.575 2.8C2.225 3.15 1.925 3.55 1.675 3.95C1.45 4.325 1.225 4.7 1.075 5.1C0.925 5.475 0.8 5.85 0.7 6.25C0.6 6.625 0.55 7 0.525 7.4C0.5 7.6 0.5 7.8 0.5 8H8V0.5C6.525 0.5 5.175 0.925 4 1.65Z" fill="#428BC1"/>
<path d="M6.2501 0.75L6.3751 1.125H6.7501L6.4501 1.375L6.5501 1.75L6.2501 1.525L5.9501 1.75L6.0501 1.375L5.7501 1.125H6.1251L6.2501 0.75ZM7.2501 2.25L7.3751 2.625H7.7501L7.4501 2.875L7.5501 3.25L7.2501 3.025L6.9501 3.25L7.0501 2.875L6.7501 2.625H7.1251L7.2501 2.25ZM5.2501 2.25L5.3751 2.625H5.7501L5.4501 2.875L5.5501 3.25L5.2501 3.025L4.9501 3.25L5.0501 2.875L4.7501 2.625H5.1251L5.2501 2.25ZM6.2501 3.75L6.3751 4.125H6.7501L6.4501 4.375L6.5501 4.75L6.2501 4.525L5.9501 4.75L6.0501 4.375L5.7501 4.125H6.1251L6.2501 3.75ZM4.2501 3.75L4.3751 4.125H4.7501L4.4501 4.375L4.5501 4.75L4.2501 4.525L3.9501 4.75L4.0501 4.375L3.7501 4.125H4.1251L4.2501 3.75ZM2.2501 3.75L2.3751 4.125H2.7501L2.4501 4.375L2.5501 4.75L2.2501 4.525L1.9501 4.75L2.0501 4.375L1.7501 4.125H2.1251L2.2501 3.75ZM7.2501 5.25L7.3751 5.625H7.7501L7.4501 5.875L7.5501 6.25L7.2501 6.025L6.9501 6.25L7.0501 5.875L6.7501 5.625H7.1251L7.2501 5.25ZM5.2501 5.25L5.3751 5.625H5.7501L5.4501 5.875L5.5501 6.25L5.2501 6.025L4.9501 6.25L5.0501 5.875L4.7501 5.625H5.1251L5.2501 5.25ZM3.2501 5.25L3.3751 5.625H3.7501L3.4501 5.875L3.5501 6.25L3.2501 6.025L2.9501 6.25L3.0501 5.875L2.7501 5.625H3.1251L3.2501 5.25ZM6.2501 6.75L6.3751 7.125H6.7501L6.4501 7.375L6.5501 7.75L6.2501 7.525L5.9501 7.75L6.0501 7.375L5.7501 7.125H6.1251L6.2501 6.75ZM4.2501 6.75L4.3751 7.125H4.7501L4.4501 7.375L4.5501 7.75L4.2501 7.525L3.9501 7.75L4.0501 7.375L3.7501 7.125H4.1251L4.2501 6.75ZM2.2501 6.75L2.3751 7.125H2.7501L2.4501 7.375L2.5501 7.75L2.2501 7.525L1.9501 7.75L2.0501 7.375L1.7501 7.125H2.1251L2.2501 6.75ZM2.9501 3.25L3.2501 3.025L3.5501 3.25L3.4251 2.875L3.7251 2.625H3.3501L3.2501 2.25L3.1251 2.625H2.7751L3.0751 2.85L2.9501 3.25ZM0.950098 6.25L1.2501 6.025L1.5501 6.25L1.4251 5.875L1.7251 5.625H1.3751L1.2501 5.25L1.1251 5.625H0.875098C0.875098 5.65 0.850098 5.675 0.850098 5.7L1.0501 5.85L0.950098 6.25Z" fill="white"/>
</g>
<defs>
<clipPath id="clip0_122_349">
<rect width="16" height="16" fill="white"/>
</clipPath>
</defs>
</svg>
