<svg viewBox="0 0 17 17" fill="none" xmlns="http://www.w3.org/2000/svg">
<path d="M3.16667 5.16667V14.5" stroke="#1E1E1E" stroke-linecap="round" stroke-linejoin="round"/>
<path d="M8.3384 3.10577C6.13491 1.98331 4.40083 2.64096 3.53617 3.3128C3.38032 3.4339 3.30239 3.49445 3.23453 3.63311C3.16667 3.77178 3.16667 3.90092 3.16667 4.1592V10.3213C3.81313 9.58947 5.75253 8.4552 8.3384 9.7724C10.6493 10.9496 12.6161 10.4616 13.5465 9.953C13.6755 9.88247 13.7401 9.84713 13.7867 9.76853C13.8333 9.68993 13.8333 9.6046 13.8333 9.43393V4.41593C13.8333 3.86359 13.8333 3.58742 13.7018 3.48737C13.5702 3.38733 13.2624 3.47267 12.6468 3.64336C11.5933 3.93546 10.0615 3.98355 8.3384 3.10577Z" stroke="#1E1E1E" stroke-linecap="round" stroke-linejoin="round"/>
</svg>
