<svg width="16" height="16" viewBox="0 0 16 16" fill="none" xmlns="http://www.w3.org/2000/svg">
<path d="M15.4698 7.83C14.8987 6.33541 13.9027 5.04056 12.6048 4.105L14.9998 1.705L14.2948 1L0.999787 14.295L1.70479 15L4.25479 12.455C5.39318 13.118 6.68261 13.4778 7.99979 13.5C9.62953 13.4387 11.2056 12.9012 12.5332 11.954C13.8608 11.0067 14.8817 9.69118 15.4698 8.17C15.5095 8.06015 15.5095 7.93985 15.4698 7.83ZM7.99979 11.25C7.31059 11.2497 6.63956 11.0289 6.08479 10.62L6.99979 9.715C7.37919 9.92288 7.81576 10.0021 8.24402 9.94087C8.67227 9.87961 9.06912 9.68114 9.37502 9.37524C9.68093 9.06933 9.8794 8.67248 9.94066 8.24423C10.0019 7.81597 9.92266 7.3794 9.71479 7L10.6198 6.095C10.972 6.5788 11.1836 7.15058 11.2312 7.74713C11.2787 8.34368 11.1604 8.94176 10.8893 9.47526C10.6181 10.0088 10.2047 10.4569 9.69479 10.7701C9.18485 11.0833 8.59823 11.2494 7.99979 11.25ZM2.26479 10.905L4.76479 8.405C4.75197 8.2704 4.74696 8.13518 4.74979 8C4.75111 7.13845 5.09394 6.31257 5.70315 5.70336C6.31236 5.09416 7.13824 4.75132 7.99979 4.75C8.13182 4.75088 8.2637 4.75922 8.39479 4.775L10.2848 2.89C9.54918 2.63744 8.77752 2.50573 7.99979 2.5C6.37005 2.56129 4.79398 3.09878 3.46639 4.04604C2.1388 4.99331 1.11787 6.30882 0.529787 7.83C0.490071 7.93985 0.490071 8.06015 0.529787 8.17C0.914315 9.19106 1.5049 10.122 2.26479 10.905Z" fill="#858688"/>
</svg>
