<svg viewBox="0 0 16 16" fill="none" xmlns="http://www.w3.org/2000/svg">
<path d="M9.07847 14.2448C8.7894 14.5155 8.40293 14.6668 8.00073 14.6668C7.59853 14.6668 7.21213 14.5155 6.923 14.2448C4.27535 11.7508 0.727174 8.96476 2.45751 4.91994C3.39309 2.73294 5.63889 1.3335 8.00073 1.3335C10.3626 1.3335 12.6084 2.73294 13.544 4.91994C15.2721 8.9597 11.7327 11.7594 9.07847 14.2448Z" stroke="#1E3151"/>
<path d="M10.3337 7.33333C10.3337 8.622 9.28899 9.66667 8.00033 9.66667C6.71166 9.66667 5.66699 8.622 5.66699 7.33333C5.66699 6.04467 6.71166 5 8.00033 5C9.28899 5 10.3337 6.04467 10.3337 7.33333Z" stroke="#1E3151"/>
</svg>
