<svg viewBox="0 0 16 16" fill="none" xmlns="http://www.w3.org/2000/svg">
<path d="M8.00008 11.3334C8.3537 11.3334 8.69284 11.1929 8.94289 10.9428C9.19294 10.6928 9.33341 10.3536 9.33341 10C9.33341 9.6464 9.19294 9.30726 8.94289 9.05721C8.69284 8.80716 8.3537 8.66669 8.00008 8.66669C7.64646 8.66669 7.30732 8.80716 7.05727 9.05721C6.80722 9.30726 6.66675 9.6464 6.66675 10C6.66675 10.3536 6.80722 10.6928 7.05727 10.9428C7.30732 11.1929 7.64646 11.3334 8.00008 11.3334ZM12.0001 5.33335C12.3537 5.33335 12.6928 5.47383 12.9429 5.72388C13.1929 5.97393 13.3334 6.31307 13.3334 6.66669V13.3334C13.3334 13.687 13.1929 14.0261 12.9429 14.2762C12.6928 14.5262 12.3537 14.6667 12.0001 14.6667H4.00008C3.64646 14.6667 3.30732 14.5262 3.05727 14.2762C2.80722 14.0261 2.66675 13.687 2.66675 13.3334V6.66669C2.66675 6.31307 2.80722 5.97393 3.05727 5.72388C3.30732 5.47383 3.64646 5.33335 4.00008 5.33335H4.66675V4.00002C4.66675 3.11597 5.01794 2.26812 5.64306 1.643C6.26818 1.01788 7.11603 0.666687 8.00008 0.666687C8.43782 0.666687 8.87127 0.752906 9.27569 0.920422C9.68011 1.08794 10.0476 1.33347 10.3571 1.643C10.6666 1.95253 10.9122 2.31999 11.0797 2.72441C11.2472 3.12883 11.3334 3.56228 11.3334 4.00002V5.33335H12.0001ZM8.00008 2.00002C7.46965 2.00002 6.96094 2.21073 6.58587 2.58581C6.21079 2.96088 6.00008 3.46959 6.00008 4.00002V5.33335H10.0001V4.00002C10.0001 3.46959 9.78937 2.96088 9.41429 2.58581C9.03922 2.21073 8.53051 2.00002 8.00008 2.00002Z" fill="currentColor"/>
</svg>
