<svg width="77" height="77" viewBox="0 0 77 77" fill="none" xmlns="http://www.w3.org/2000/svg">
<g clip-path="url(#clip0_7_4)">
<path d="M38.5 0C46.9662 0 54.7924 2.73485 61.1482 7.36628L1.86259 50.3542C0.655102 46.6196 0 42.6366 0 38.5C0 17.237 17.237 0 38.5 0Z" fill="#32CDFF"/>
<path d="M15.8701 7.35305L38.5 77C17.237 77 0 59.763 0 38.5C0 25.6951 6.25294 14.3525 15.8701 7.35305Z" fill="#00A0FF"/>
<path d="M75.1229 50.3991C70.1101 65.8377 55.6097 77 38.4999 77C21.3901 77 6.88977 65.8377 1.87695 50.3991H75.1229Z" fill="#64F0FF"/>
<path d="M38.5 50.3991V77C55.6099 77 70.1102 65.8377 75.123 50.3991H38.5Z" fill="#32CDFF"/>
<path d="M61.1299 7.35305L38.5 77C59.763 77 77 59.763 77 38.5C77 25.6951 70.7471 14.3525 61.1299 7.35305Z" fill="#00A0FF"/>
<path d="M38.5 0V23.7885L75.1374 50.3542C76.3449 46.6196 77 42.6366 77 38.5C77 17.237 59.763 0 38.5 0Z" fill="#3C73CD"/>
<path d="M38.5 0C46.9662 0 54.7924 2.73485 61.1482 7.36628L38.5 23.7885V0Z" fill="#00A0FF"/>
</g>
<defs>
<clipPath id="clip0_7_4">
<rect width="77" height="77" fill="white"/>
</clipPath>
</defs>
</svg>
