<svg width="150" height="66" viewBox="0 0 150 66" fill="none" xmlns="http://www.w3.org/2000/svg">
<path d="M129.348 64.904V35.504H149.046V40.586H135.648V47.516H147.786V52.388H135.648V59.822H149.046V64.904H129.348Z" fill="black"/>
<path d="M103.702 64.904V35.504H115.126C117.506 35.504 119.48 35.924 121.048 36.764C122.644 37.576 123.82 38.668 124.576 40.04C125.36 41.412 125.752 42.938 125.752 44.618C125.752 46.186 125.374 47.656 124.618 49.028C123.89 50.4 122.742 51.506 121.174 52.346C119.606 53.186 117.576 53.606 115.084 53.606H110.002V64.904H103.702ZM118.864 64.904L112.942 52.052H119.704L126.004 64.904H118.864ZM110.002 49.07H114.748C116.316 49.07 117.464 48.692 118.192 47.936C118.948 47.18 119.326 46.158 119.326 44.87C119.326 43.61 118.948 42.616 118.192 41.888C117.464 41.132 116.316 40.754 114.748 40.754H110.002V49.07Z" fill="black"/>
<path d="M80.2705 64.904V35.504H99.9685V40.586H86.5705V47.516H98.7085V52.388H86.5705V59.822H99.9685V64.904H80.2705Z" fill="black"/>
<path d="M69.6167 64.904V35.504H75.9167V64.904H69.6167ZM51.1787 64.904V35.504H57.4787V64.904H51.1787ZM56.6807 52.43V47.348H70.6247V52.43H56.6807Z" fill="black"/>
<path d="M26.23 64.904V35.504H37.654C40.062 35.504 42.05 35.91 43.618 36.722C45.214 37.534 46.404 38.654 47.188 40.082C47.972 41.482 48.364 43.064 48.364 44.828C48.364 46.48 47.986 48.006 47.23 49.406C46.474 50.806 45.312 51.94 43.744 52.808C42.176 53.676 40.146 54.11 37.654 54.11H32.53V64.904H26.23ZM32.53 49.07H37.234C38.886 49.07 40.076 48.692 40.804 47.936C41.56 47.152 41.938 46.116 41.938 44.828C41.938 43.512 41.56 42.49 40.804 41.762C40.076 41.006 38.886 40.628 37.234 40.628H32.53V49.07Z" fill="black"/>
<path d="M12.1461 65.408C10.0461 65.408 8.14214 65.058 6.43414 64.358C4.75414 63.63 3.42414 62.566 2.44414 61.166C1.46414 59.766 0.932144 58.044 0.848145 56H7.56815C7.59615 56.812 7.80615 57.526 8.19815 58.142C8.59015 58.758 9.12214 59.248 9.79414 59.612C10.4661 59.948 11.2501 60.116 12.1461 60.116C12.9021 60.116 13.5601 60.004 14.1201 59.78C14.7081 59.528 15.1701 59.178 15.5061 58.73C15.8421 58.254 16.0101 57.666 16.0101 56.966C16.0101 56.238 15.8141 55.622 15.4221 55.118C15.0301 54.586 14.4981 54.138 13.8261 53.774C13.1541 53.382 12.3701 53.032 11.4741 52.724C10.6061 52.388 9.66814 52.066 8.66014 51.758C6.33614 51.002 4.54414 49.98 3.28414 48.692C2.05214 47.404 1.43614 45.682 1.43614 43.526C1.43614 41.734 1.87014 40.208 2.73814 38.948C3.63414 37.66 4.85215 36.68 6.39215 36.008C7.93215 35.336 9.68214 35 11.6421 35C13.6581 35 15.4361 35.35 16.9761 36.05C18.5161 36.722 19.7341 37.716 20.6301 39.032C21.5261 40.32 22.0021 41.86 22.0581 43.652H15.2961C15.2681 43.036 15.0861 42.476 14.7501 41.972C14.4421 41.468 14.0081 41.062 13.4481 40.754C12.9161 40.446 12.2861 40.292 11.5581 40.292C10.9141 40.264 10.3261 40.362 9.79414 40.586C9.29014 40.782 8.87014 41.104 8.53414 41.552C8.22614 41.972 8.07214 42.504 8.07214 43.148C8.07214 43.764 8.22614 44.31 8.53414 44.786C8.87014 45.234 9.31814 45.626 9.87814 45.962C10.4661 46.27 11.1381 46.564 11.8941 46.844C12.6781 47.124 13.5321 47.404 14.4561 47.684C15.9401 48.188 17.2981 48.79 18.5301 49.49C19.7901 50.162 20.7981 51.058 21.5541 52.178C22.3381 53.27 22.7301 54.726 22.7301 56.546C22.7301 58.142 22.3101 59.612 21.4701 60.956C20.6581 62.3 19.4681 63.378 17.9001 64.19C16.3601 65.002 14.4421 65.408 12.1461 65.408Z" fill="black"/>
<path d="M123.956 30.408C121.072 30.408 118.538 29.764 116.354 28.476C114.17 27.188 112.448 25.41 111.188 23.142C109.956 20.846 109.34 18.2 109.34 15.204C109.34 12.208 109.956 9.576 111.188 7.308C112.448 5.012 114.17 3.22 116.354 1.932C118.538 0.644 121.072 0 123.956 0C126.84 0 129.388 0.644 131.6 1.932C133.812 3.22 135.52 5.012 136.724 7.308C137.956 9.576 138.572 12.208 138.572 15.204C138.572 18.2 137.956 20.846 136.724 23.142C135.52 25.41 133.812 27.188 131.6 28.476C129.388 29.764 126.84 30.408 123.956 30.408ZM123.956 24.738C125.664 24.738 127.12 24.346 128.324 23.562C129.556 22.778 130.508 21.686 131.18 20.286C131.852 18.858 132.188 17.164 132.188 15.204C132.188 13.244 131.852 11.564 131.18 10.164C130.508 8.736 129.556 7.644 128.324 6.888C127.12 6.104 125.664 5.712 123.956 5.712C122.304 5.712 120.862 6.104 119.63 6.888C118.398 7.644 117.446 8.736 116.774 10.164C116.102 11.564 115.766 13.244 115.766 15.204C115.766 17.164 116.102 18.858 116.774 20.286C117.446 21.686 118.398 22.778 119.63 23.562C120.862 24.346 122.304 24.738 123.956 24.738Z" fill="black"/>
<path d="M93.5958 29.904V5.586H85.0698V0.503998H108.422V5.586H99.8958V29.904H93.5958Z" fill="black"/>
<path d="M69.5467 30.408C66.6627 30.408 64.1287 29.764 61.9447 28.476C59.7607 27.188 58.0387 25.41 56.7787 23.142C55.5467 20.846 54.9307 18.2 54.9307 15.204C54.9307 12.208 55.5467 9.576 56.7787 7.308C58.0387 5.012 59.7607 3.22 61.9447 1.932C64.1287 0.644 66.6627 0 69.5467 0C72.4307 0 74.9787 0.644 77.1907 1.932C79.4027 3.22 81.1107 5.012 82.3147 7.308C83.5467 9.576 84.1627 12.208 84.1627 15.204C84.1627 18.2 83.5467 20.846 82.3147 23.142C81.1107 25.41 79.4027 27.188 77.1907 28.476C74.9787 29.764 72.4307 30.408 69.5467 30.408ZM69.5467 24.738C71.2547 24.738 72.7107 24.346 73.9147 23.562C75.1467 22.778 76.0987 21.686 76.7707 20.286C77.4427 18.858 77.7787 17.164 77.7787 15.204C77.7787 13.244 77.4427 11.564 76.7707 10.164C76.0987 8.736 75.1467 7.644 73.9147 6.888C72.7107 6.104 71.2547 5.712 69.5467 5.712C67.8947 5.712 66.4527 6.104 65.2207 6.888C63.9887 7.644 63.0367 8.736 62.3647 10.164C61.6927 11.564 61.3567 13.244 61.3567 15.204C61.3567 17.164 61.6927 18.858 62.3647 20.286C63.0367 21.686 63.9887 22.778 65.2207 23.562C66.4527 24.346 67.8947 24.738 69.5467 24.738Z" fill="black"/>
<path d="M45.2012 29.904V0.503998H51.5012V29.904H45.2012ZM26.7632 29.904V0.503998H33.0632V29.904H26.7632ZM32.2652 17.43V12.348H46.2092V17.43H32.2652Z" fill="black"/>
<path d="M1.81396 29.904V0.503998H13.238C15.646 0.503998 17.634 0.909998 19.202 1.722C20.798 2.534 21.988 3.654 22.772 5.082C23.556 6.482 23.948 8.064 23.948 9.828C23.948 11.48 23.57 13.006 22.814 14.406C22.058 15.806 20.896 16.94 19.328 17.808C17.76 18.676 15.73 19.11 13.238 19.11H8.11397V29.904H1.81396ZM8.11397 14.07H12.818C14.47 14.07 15.66 13.692 16.388 12.936C17.144 12.152 17.522 11.116 17.522 9.828C17.522 8.512 17.144 7.49 16.388 6.762C15.66 6.006 14.47 5.628 12.818 5.628H8.11397V14.07Z" fill="black"/>
</svg>
