<svg viewBox="0 0 16 16" fill="none" xmlns="http://www.w3.org/2000/svg">
  <path fill-rule="evenodd" clip-rule="evenodd" d="M7.99993 2.66671C7.0671 2.66654 6.15054 2.91103 5.34174 3.37579C4.53293 3.84055 3.86017 4.50932 3.3906 5.31534C2.92104 6.12137 2.67109 7.03645 2.6657 7.96926C2.66032 8.90208 2.89969 9.81999 3.35993 10.6314C3.671 10.2271 4.07088 9.89976 4.52865 9.67469C4.98642 9.44962 5.48982 9.33284 5.99993 9.33337H9.99993C10.51 9.33284 11.0134 9.44962 11.4712 9.67469C11.929 9.89976 12.3289 10.2271 12.6399 10.6314C13.1002 9.81999 13.3395 8.90208 13.3341 7.96926C13.3288 7.03645 13.0788 6.12137 12.6092 5.31534C12.1397 4.50932 11.4669 3.84055 10.6581 3.37579C9.84931 2.91103 8.93275 2.66654 7.99993 2.66671ZM13.2953 12.0507C13.3788 11.9418 13.4588 11.8303 13.5353 11.716C14.2744 10.6178 14.6683 9.32379 14.6666 8.00004C14.6666 4.31804 11.6819 1.33337 7.99993 1.33337C4.31793 1.33337 1.33326 4.31804 1.33326 8.00004C1.33116 9.46455 1.81329 10.8887 2.70459 12.0507L2.70126 12.0627L2.93793 12.338C3.56318 13.069 4.33952 13.6558 5.21341 14.0578C6.08731 14.4598 7.03799 14.6676 7.99993 14.6667C8.14393 14.6667 8.28704 14.6623 8.42926 14.6534C9.63219 14.5775 10.7917 14.1753 11.7833 13.49C12.2575 13.1629 12.6873 12.7757 13.0619 12.338L13.2986 12.0627L13.2953 12.0507ZM7.99993 4.00004C7.46949 4.00004 6.96079 4.21075 6.58571 4.58583C6.21064 4.9609 5.99993 5.46961 5.99993 6.00004C5.99993 6.53047 6.21064 7.03918 6.58571 7.41425C6.96079 7.78933 7.46949 8.00004 7.99993 8.00004C8.53036 8.00004 9.03907 7.78933 9.41414 7.41425C9.78921 7.03918 9.99993 6.53047 9.99993 6.00004C9.99993 5.46961 9.78921 4.9609 9.41414 4.58583C9.03907 4.21075 8.53036 4.00004 7.99993 4.00004Z" fill="currentColor"/>
</svg>
