<svg viewBox="0 0 16 16" fill="none" xmlns="http://www.w3.org/2000/svg">
<g id="bubble-chat">
<path id="Vector" d="M14.6666 7.71117C14.6666 11.2333 11.6814 14.089 7.99992 14.089C7.56705 14.0896 7.13539 14.0495 6.71019 13.9697C6.40414 13.9122 6.2511 13.8834 6.14427 13.8998C6.03743 13.9161 5.88604 13.9966 5.58325 14.1576C4.72668 14.6132 3.72789 14.774 2.76733 14.5954C3.13241 14.1463 3.38175 13.6075 3.49177 13.0299C3.55844 12.6766 3.39325 12.3334 3.14585 12.0821C2.02214 10.941 1.33325 9.40344 1.33325 7.71117C1.33325 4.18909 4.31844 1.33337 7.99992 1.33337C11.6814 1.33337 14.6666 4.18909 14.6666 7.71117Z" stroke="currentColor" stroke-linejoin="round"/>
<path id="Vector_2" d="M7.99692 8H8.00292M10.6606 8H10.6666M5.33325 8H5.33923" stroke="currentColor" stroke-width="1.33333" stroke-linecap="round" stroke-linejoin="round"/>
</g>
</svg>
