<svg viewBox="0 0 24 24" fill="none" xmlns="http://www.w3.org/2000/svg">
<g filter="url(#filter0_b_421_37)">
<rect width="24" height="24" rx="12" fill="black" fill-opacity="0.5"/>
<path d="M13.2448 7.726C13.2448 7.88952 13.2127 8.05145 13.1502 8.20255C13.0876 8.35364 12.996 8.49094 12.8804 8.60661C12.7648 8.72227 12.6275 8.81404 12.4765 8.87666C12.3254 8.93929 12.1635 8.97155 12 8.9716C11.8365 8.97165 11.6745 8.9395 11.5234 8.87697C11.3724 8.81444 11.2351 8.72276 11.1194 8.60717C11.0037 8.49158 10.912 8.35434 10.8493 8.20329C10.7867 8.05223 10.7544 7.89032 10.7544 7.7268C10.7543 7.39655 10.8854 7.07979 11.1188 6.84619C11.3523 6.6126 11.6689 6.48131 11.9992 6.4812C12.3294 6.4811 12.6462 6.61218 12.8798 6.84563C13.1134 7.07907 13.2447 7.39575 13.2448 7.726Z" fill="white"/>
<path d="M12.0002 13.2444C12.6877 13.2444 13.245 12.687 13.245 11.9996C13.245 11.3121 12.6877 10.7548 12.0002 10.7548C11.3127 10.7548 10.7554 11.3121 10.7554 11.9996C10.7554 12.687 11.3127 13.2444 12.0002 13.2444Z" fill="white"/>
<path d="M12.0002 17.5188C12.6877 17.5188 13.245 16.9615 13.245 16.274C13.245 15.5865 12.6877 15.0292 12.0002 15.0292C11.3127 15.0292 10.7554 15.5865 10.7554 16.274C10.7554 16.9615 11.3127 17.5188 12.0002 17.5188Z" fill="white"/>
</g>
<defs>
<filter id="filter0_b_421_37" x="-14" y="-14" width="52" height="52" filterUnits="userSpaceOnUse" color-interpolation-filters="sRGB">
<feFlood flood-opacity="0" result="BackgroundImageFix"/>
<feGaussianBlur in="BackgroundImageFix" stdDeviation="7"/>
<feComposite in2="SourceAlpha" operator="in" result="effect1_backgroundBlur_421_37"/>
<feBlend mode="normal" in="SourceGraphic" in2="effect1_backgroundBlur_421_37" result="shape"/>
</filter>
</defs>
</svg>
