<svg viewBox="0 0 16 16" fill="none" xmlns="http://www.w3.org/2000/svg">
<g id="notification-01">
<path id="Vector" d="M3.43891 7.66071C3.38993 8.59137 3.44624 9.58204 2.61475 10.2056C2.22776 10.4959 2 10.9514 2 11.4352C2 12.1006 2.5212 12.6667 3.2 12.6667H12.8C13.4788 12.6667 14 12.1006 14 11.4352C14 10.9514 13.7723 10.4959 13.3853 10.2056C12.5537 9.58204 12.6101 8.59137 12.5611 7.66071C12.4334 5.23486 10.4292 3.33337 8 3.33337C5.57078 3.33337 3.56659 5.23485 3.43891 7.66071Z" stroke="#b92626" stroke-linecap="round" stroke-linejoin="round"/>
<path id="Vector_2" d="M7 2.08337C7 2.63566 7.44773 3.33337 8 3.33337C8.55227 3.33337 9 2.63566 9 2.08337C9 1.53109 8.55227 1.33337 8 1.33337C7.44773 1.33337 7 1.53109 7 2.08337Z" stroke="#b92626"/>
<path id="Vector_3" d="M10 12.6666C10 13.7712 9.1046 14.6666 8 14.6666C6.8954 14.6666 6 13.7712 6 12.6666" stroke="#b92626" stroke-linecap="round" stroke-linejoin="round"/>
</g>
</svg>
