<svg viewBox="0 0 20 20" fill="none" xmlns="http://www.w3.org/2000/svg">
<path opacity="0.992" fill-rule="evenodd" clip-rule="evenodd" d="M9.43893 0.000980333C13.4674 -0.0463761 16.5453 1.62198 18.6724 5.00605C20.4881 8.4473 20.4414 11.862 18.5322 15.2501C16.6638 18.1309 14.0067 19.7135 10.561 19.9979C6.53112 20.0679 3.45331 18.4073 1.3275 15.0162C-0.488079 11.5732 -0.441327 8.15855 1.46776 4.77217C3.34568 1.89476 6.00277 0.304367 9.43893 0.000980333ZM9.7662 5.05283C10.5527 5.0213 10.9501 5.39551 10.9584 6.17546C10.7363 6.86471 10.2766 7.10636 9.57919 6.90049C8.89423 6.39124 8.84748 5.82992 9.43893 5.21655C9.55231 5.15981 9.66143 5.10526 9.7662 5.05283ZM9.8597 9.02882C10.4414 9.03462 10.8076 9.31528 10.9584 9.87079C10.9896 11.6327 10.9896 13.3946 10.9584 15.1565C10.6809 15.9348 10.1745 16.1453 9.43893 15.788C9.21738 15.633 9.08493 15.4225 9.04154 15.1565C9.01036 13.3946 9.01036 11.6327 9.04154 9.87079C9.1357 9.41023 9.40841 9.12958 9.8597 9.02882Z" fill="#C9C9C9"/>
</svg>
