<svg viewBox="0 0 150 150" fill="none" xmlns="http://www.w3.org/2000/svg">
<circle cx="75" cy="75" r="75" fill="url(#paint0_linear_821_4323)" fill-opacity="0.5"/>
<circle cx="75.1897" cy="75.1309" r="55.1887" fill="#78EF95"/>
<path opacity="0.956" fill-rule="evenodd" clip-rule="evenodd" d="M84.8934 61.7676C86.396 61.8314 87.0225 62.6105 86.7732 64.1046C86.6716 64.274 86.5699 64.4433 86.4683 64.6127C82.0146 69.2696 77.5607 73.9267 73.1069 78.5837C71.6424 79.2569 70.7279 78.8166 70.3635 77.2628C70.3928 76.9256 70.4774 76.6039 70.6175 76.2975C75.1729 71.5389 79.7284 66.7802 84.2838 62.0217C84.4983 61.9358 84.7015 61.8512 84.8934 61.7676Z" fill="#091428"/>
<path opacity="0.959" fill-rule="evenodd" clip-rule="evenodd" d="M95.6642 61.7676C97.45 61.8514 98.0426 62.732 97.4423 64.4094C89.7742 72.518 82.0689 80.5958 74.3266 88.6429C73.6153 89.1171 72.9041 89.1171 72.1928 88.6429C69.568 85.8825 66.9431 83.1222 64.3182 80.3618C63.6787 78.4956 64.3392 77.6319 66.2996 77.7708C66.8506 78.1182 67.3417 78.5415 67.7729 79.0409C69.5646 81.0022 71.3936 82.9327 73.2597 84.8326C80.4908 77.2628 87.7218 69.693 94.9529 62.1233C95.1993 62 95.4365 61.8815 95.6642 61.7676Z" fill="#091428"/>
<path opacity="0.957" fill-rule="evenodd" clip-rule="evenodd" d="M54.3079 77.7198C54.844 77.662 55.3521 77.7467 55.832 77.9738C58.0367 80.2122 60.2043 82.4815 62.3349 84.7815C62.4026 84.8493 62.4703 84.8493 62.5381 84.7815C62.9545 84.1618 63.4963 83.6876 64.1638 83.359C65.7231 83.2587 66.4174 83.987 66.2468 85.5436C65.3942 86.7015 64.4289 87.7684 63.3509 88.7442C62.7413 89.0829 62.1316 89.0829 61.522 88.7442C58.7214 85.9438 55.9949 83.0818 53.3426 80.1584C52.9683 79.047 53.2901 78.2341 54.3079 77.7198Z" fill="#091428"/>
<defs>
<linearGradient id="paint0_linear_821_4323" x1="75" y1="-121.698" x2="75" y2="108.255" gradientUnits="userSpaceOnUse">
<stop stop-color="#F6C0DA"/>
<stop offset="1" stop-color="#F6C0DA" stop-opacity="0"/>
</linearGradient>
</defs>
</svg>
