<svg viewBox="0 0 12 12" fill="none" xmlns="http://www.w3.org/2000/svg">
<path fill-rule="evenodd" clip-rule="evenodd" d="M2.5 1.5C2.5 1.36739 2.55268 1.24021 2.64645 1.14645C2.74021 1.05268 2.86739 1 3 1H9C9.13261 1 9.25979 1.05268 9.35355 1.14645C9.44732 1.24021 9.5 1.36739 9.5 1.5C9.5 1.63261 9.44732 1.75979 9.35355 1.85355C9.25979 1.94732 9.13261 2 9 2H3C2.86739 2 2.74021 1.94732 2.64645 1.85355C2.55268 1.75979 2.5 1.63261 2.5 1.5ZM2.5 2.5C2.23478 2.5 1.98043 2.60536 1.79289 2.79289C1.60536 2.98043 1.5 3.23478 1.5 3.5V9.5C1.5 9.76522 1.60536 10.0196 1.79289 10.2071C1.98043 10.3946 2.23478 10.5 2.5 10.5H9.5C9.76522 10.5 10.0196 10.3946 10.2071 10.2071C10.3946 10.0196 10.5 9.76522 10.5 9.5V3.5C10.5 3.23478 10.3946 2.98043 10.2071 2.79289C10.0196 2.60536 9.76522 2.5 9.5 2.5H2.5ZM9.5 6.843V3.5H2.5V9.5H2.9645L7.1185 5.346C7.17654 5.28795 7.24545 5.24189 7.32128 5.21047C7.39712 5.17906 7.47841 5.16288 7.5605 5.16288C7.64259 5.16288 7.72388 5.17906 7.79972 5.21047C7.87555 5.24189 7.94446 5.28795 8.0025 5.346L9.5 6.843ZM4.25 6C4.44891 6 4.63968 5.92098 4.78033 5.78033C4.92098 5.63968 5 5.44891 5 5.25C5 5.05109 4.92098 4.86032 4.78033 4.71967C4.63968 4.57902 4.44891 4.5 4.25 4.5C4.05109 4.5 3.86032 4.57902 3.71967 4.71967C3.57902 4.86032 3.5 5.05109 3.5 5.25C3.5 5.44891 3.57902 5.63968 3.71967 5.78033C3.86032 5.92098 4.05109 6 4.25 6Z" fill="currentColor"/>
</svg>
