
    <svg xmlns="http://www.w3.org/2000/svg" viewBox="0 0 542.06 660.64" className="w-full h-auto">
      <g className="stroke-black stroke-[11px]" fill="currentColor">
        <path d="M987.5,409.5s-2.56-62.54-31-53c-24,8-50,95-71,113s-42.68,61-49.75,66.7c-72.47,42.92-132.55,113-11.31,220.62,0,0,85.56,31.82,103.23,35.36s212.84-4.95,224.86-19.8,5.66-39.6-12.72-43.84-22.63-4.25-22.63-4.25,39.6,7.07,46-30.4-40.3-33.24-40.3-33.24,59.39-2.82,52.32-35.35-51.62-30.41-51.62-30.41,63.64,2.83,53.74-39.6c-6.36-24.74-46-26.16-46-26.16L956.67,527.5C975.1,491.31,983.12,451.08,987.5,409.5Z" transform="translate(-678.01 -137.84)" />
        <line className="stroke-black" x1="369.87" y1="604.84" x2="391.08" y2="603.43" />
        <line className="stroke-black" x1="369.87" y1="562.42" x2="394.62" y2="563.12" />
        <line className="stroke-black" x1="369.16" y1="523.53" x2="394.62" y2="523.53" />
        <line className="stroke-black" x1="370.58" y1="485.34" x2="393.21" y2="482.51" />
        <line className="stroke-black" x1="373.41" y1="441.5" x2="394.62" y2="441.5" />
        <rect className="stroke-black" x="69.49" y="358.66" width="89" height="290" rx="25.73" />
        <circle className="stroke-black" cx="113.49" cy="409.66" r="15" />
      </g>
      <g className="stroke-black stroke-[12px]" fill="currentColor">
        <polygon points="118.44 210.87 140.07 255.74 91.3 245.62 55.32 280.06 49.87 230.55 6 206.97 51.4 186.49 60.27 137.48 93.78 174.33 143.13 167.62 118.44 210.87" />
        <polygon points="423.63 210.8 402 255.66 450.76 245.55 486.75 279.99 492.19 230.48 536.06 206.9 490.66 186.42 481.79 137.41 448.29 174.26 398.94 167.55 423.63 210.8" />
        <polygon points="255.92 92.93 247.97 142.1 291.83 118.5 336.14 141.25 327.25 92.25 362.58 57.14 313.23 50.45 290.76 6 269.14 50.87 219.92 58.51 255.92 92.93" />
      </g>
    </svg>
 