<svg viewBox="0 0 18 18" fill="none" xmlns="http://www.w3.org/2000/svg">
<g clip-path="url(#clip0_51_868)">
<path d="M11.1149 0.75H6.88485L6.3996 3.17775C5.99783 3.35779 5.61579 3.57898 5.2596 3.83775L2.9121 3.0435L0.797852 6.7065L2.6586 8.3415C2.61367 8.77935 2.61367 9.22065 2.6586 9.6585L0.797852 11.2935L2.91285 14.9565L5.2596 14.163C5.6136 14.4195 5.9946 14.6415 6.3996 14.8223L6.88485 17.25H11.1149L11.6001 14.8223C12.0019 14.6422 12.3839 14.421 12.7401 14.1622L15.0876 14.9565L17.2026 11.2935L15.3411 9.6585C15.386 9.22065 15.386 8.77935 15.3411 8.3415L17.2019 6.7065L15.0869 3.0435L12.7409 3.837C12.3846 3.57849 12.0026 3.35756 11.6009 3.17775L11.1149 0.75ZM8.99985 12C8.2042 12 7.44114 11.6839 6.87853 11.1213C6.31592 10.5587 5.99985 9.79565 5.99985 9C5.99985 8.20435 6.31592 7.44129 6.87853 6.87868C7.44114 6.31607 8.2042 6 8.99985 6C9.7955 6 10.5586 6.31607 11.1212 6.87868C11.6838 7.44129 11.9999 8.20435 11.9999 9C11.9999 9.79565 11.6838 10.5587 11.1212 11.1213C10.5586 11.6839 9.7955 12 8.99985 12Z" fill="currentColor"/>
</g>
<defs>
<clipPath id="clip0_51_868">
<rect width="18" height="18" fill="white"/>
</clipPath>
</defs>
</svg>
