<svg viewBox="0 0 24 24" fill="none" xmlns="http://www.w3.org/2000/svg">
<path d="M11.1002 3C7.45057 3.00657 5.53942 3.09617 4.31806 4.31754C3 5.63559 3 7.75698 3 11.9997C3 16.2425 3 18.3639 4.31806 19.6819C5.63611 21 7.7575 21 12.0003 21C16.243 21 18.3644 21 19.6825 19.6819C20.9038 18.4606 20.9934 16.5494 21 12.8998" stroke="currentColor" stroke-width="1.5" stroke-linecap="round" stroke-linejoin="round"/>
<path d="M20.9995 6.02517L20 6.02264C16.2634 6.01319 14.3951 6.00846 13.0817 6.95253C12.6452 7.26626 12.2622 7.64832 11.9474 8.084C11 9.39503 11 11.2634 11 14.9999M20.9995 6.02517C21.0062 5.86254 20.9481 5.69893 20.8251 5.55321C20.0599 4.64674 18.0711 2.99988 18.0711 2.99988M20.9995 6.02517C20.9934 6.171 20.9352 6.31604 20.8249 6.44669C20.0596 7.35298 18.0711 8.99988 18.0711 8.99988" stroke="currentColor" stroke-width="1.5" stroke-linecap="round" stroke-linejoin="round"/>
</svg>
