<svg viewBox="0 0 121 120" fill="none" xmlns="http://www.w3.org/2000/svg">
<circle cx="60.5" cy="60" r="60" fill="#F5F5F5"/>
<path d="M43.2781 82.143C41.9249 82.143 40.7669 81.6616 39.8041 80.6988C38.8413 79.736 38.3591 78.5772 38.3574 77.2224V42.7778C38.3574 41.4246 38.8396 40.2667 39.8041 39.3038C40.7685 38.341 41.9265 37.8588 43.2781 37.8572H77.7226C79.0758 37.8572 80.2346 38.3394 81.1991 39.3038C82.1635 40.2683 82.6449 41.4263 82.6433 42.7778V77.2224C82.6433 78.5756 82.1619 79.7344 81.1991 80.6988C80.2363 81.6633 79.0774 82.1447 77.7226 82.143H43.2781ZM43.2781 77.2224H77.7226V42.7778H43.2781V77.2224ZM45.7384 72.3017H75.2623L66.0361 60.0001L58.6551 69.8414L53.1194 62.4604L45.7384 72.3017Z" fill="#1E3151"/>
</svg>
