<svg viewBox="0 0 18 18" fill="none" xmlns="http://www.w3.org/2000/svg">
<path fill-rule="evenodd" clip-rule="evenodd" d="M9 1.5C4.85775 1.5 1.5 4.85775 1.5 9C1.5 13.1423 4.85775 16.5 9 16.5C13.1423 16.5 16.5 13.1423 16.5 9C16.5 4.85775 13.1423 1.5 9 1.5ZM6.375 7.125C6.375 6.78028 6.4429 6.43894 6.57482 6.12046C6.70673 5.80198 6.90009 5.5126 7.14384 5.26884C7.3876 5.02509 7.67698 4.83173 7.99546 4.69982C8.31394 4.5679 8.65528 4.5 9 4.5C9.34472 4.5 9.68606 4.5679 10.0045 4.69982C10.323 4.83173 10.6124 5.02509 10.8562 5.26884C11.0999 5.5126 11.2933 5.80198 11.4252 6.12046C11.5571 6.43894 11.625 6.78028 11.625 7.125C11.625 7.82119 11.3484 8.48887 10.8562 8.98116C10.3639 9.47344 9.69619 9.75 9 9.75C8.30381 9.75 7.63613 9.47344 7.14384 8.98116C6.65156 8.48887 6.375 7.82119 6.375 7.125ZM13.6935 12.738C13.1319 13.444 12.4181 14.0141 11.6054 14.4058C10.7928 14.7974 9.90214 15.0006 9 15C8.09786 15.0006 7.20724 14.7974 6.39455 14.4058C5.58187 14.0141 4.86811 13.444 4.3065 12.738C5.52225 11.8657 7.18125 11.25 9 11.25C10.8188 11.25 12.4777 11.8657 13.6935 12.738Z" fill="currentColor"/>
</svg>
